<?xml version="1.0" encoding="UTF-8" standalone="no"?>
<!-- Created with Inkscape (http://www.inkscape.org/) -->

<svg
   width="16"
   height="16"
   viewBox="0 0 4.2333331 4.2333334"
   version="1.1"
   id="svg1"
   inkscape:version="1.3 (0e150ed6c4, 2023-07-21)"
   sodipodi:docname="dbhero.svg"
   xmlns:inkscape="http://www.inkscape.org/namespaces/inkscape"
   xmlns:sodipodi="http://sodipodi.sourceforge.net/DTD/sodipodi-0.dtd"
   xmlns="http://www.w3.org/2000/svg"
   xmlns:svg="http://www.w3.org/2000/svg">
  <sodipodi:namedview
     id="namedview1"
     pagecolor="#ffffff"
     bordercolor="#000000"
     borderopacity="0.25"
     inkscape:showpageshadow="2"
     inkscape:pageopacity="0.0"
     inkscape:pagecheckerboard="true"
     inkscape:deskcolor="#d1d1d1"
     inkscape:document-units="mm"
     inkscape:zoom="45.254834"
     inkscape:cx="7.4135726"
     inkscape:cy="7.745029"
     inkscape:window-width="1920"
     inkscape:window-height="991"
     inkscape:window-x="-9"
     inkscape:window-y="-9"
     inkscape:window-maximized="1"
     inkscape:current-layer="layer1" />
  <defs
     id="defs1">
    <inkscape:perspective
       sodipodi:type="inkscape:persp3d"
       inkscape:vp_x="0 : -144.26667 : 1"
       inkscape:vp_y="999.99993 : 0 : 0"
       inkscape:vp_z="209.99999 : -144.26667 : 1"
       inkscape:persp3d-origin="105 : -193.76667 : 1"
       id="perspective11" />
  </defs>
  <g
     inkscape:label="Layer 1"
     inkscape:groupmode="layer"
     id="layer1">
    <g
       id="g41"
       transform="matrix(-0.20614286,-1.2200072,1.2200072,-0.20614286,0.18217211,5.3484796)">
      <path
         id="path39"
         style="fill:#ffffff;stroke-width:0.202389"
         d="m 1.4741836,2.3866715 c -0.037451,0.023046 -0.049115,0.072034 -0.026069,0.1094851 L 1.600321,2.7434983 c -0.0016,8.399e-4 -0.00311,0.00131 -0.00467,0.00227 l -0.2887097,0.177663 a 0.2959643,0.2959643 0 0 0 -0.258343,0.02488 0.2959643,0.2959643 0 0 0 -0.0969971,0.4073684 0.2959643,0.2959643 0 0 0 0.4073685,0.096997 0.2959643,0.2959643 0 0 0 0.138196,-0.2191377 L 1.7863133,3.0556033 c 0.00157,-9.643e-4 0.00265,-0.0021 0.00413,-0.00315 L 1.9426497,3.299795 c 0.023046,0.037451 0.072034,0.049115 0.1094851,0.026069 L 2.1449958,3.26872 c 0.037451,-0.023046 0.049115,-0.072034 0.026069,-0.1094851 l -0.017333,-0.028167 1.7375531,-1.0692363 0.00572,-0.00352 c 2.992e-4,-1.841e-4 5.843e-4,-3.543e-4 8.772e-4,-5.398e-4 0.00429,-0.00264 0.00823,-0.00574 0.011951,-0.00917 0.00388,-0.00358 0.00721,-0.00746 0.010326,-0.011814 0.00578,-0.00809 0.010186,-0.017458 0.012628,-0.027794 2.86e-5,-1.21e-4 4.12e-4,-1.496e-4 4.401e-4,-2.708e-4 L 4.0469214,1.51705 C 4.0568414,1.47421 4.0305935,1.431557 3.9878805,1.421106 L 3.4977385,1.3010192 c -1.209e-4,-2.97e-5 -3.193e-4,2.997e-4 -4.401e-4,2.708e-4 -0.010329,-0.00247 -0.02068,-0.00276 -0.030502,-0.00125 -0.0053,8.175e-4 -0.010249,0.00204 -0.0152,0.00389 -0.00475,0.00177 -0.00929,0.00389 -0.013575,0.00653 -2.862e-4,1.761e-4 -5.963e-4,3.618e-4 -8.772e-4,5.398e-4 l -0.00572,0.00352 -1.7375531,1.0692363 -0.017333,-0.028167 c -0.02305,-0.037445 -0.072038,-0.049109 -0.109489,-0.026063 z"
         inkscape:label="sword" />
      <path
         id="path38"
         style="fill:#ffffff;stroke-width:0.264583"
         inkscape:label="cube"
         d="m 0.91219842,-0.42655503 c -0.1583373,0 -1.29287614,0.65496414 -1.37204479,0.79208827 -0.0791687,0.13712413 -0.0791687,1.44607936 0,1.58320346 0.0791687,0.1371241 1.21370749,0.7911152 1.37204479,0.7911152 0.15833728,0 1.29190308,-0.6539911 1.37107168,-0.7911152 0.079169,-0.1371241 0.079169,-1.44607933 0,-1.58320346 C 2.2041015,0.22840911 1.0705357,-0.42655503 0.91219842,-0.42655503 Z M 2.1227117,0.49397999 c 0.037868,-0.004487 0.065196,0.0358686 0.065196,0.10314663 V 1.7161702 c 0,0.082804 -0.041941,0.1745473 -0.093416,0.2062933 L 1.0698376,2.5549664 c -0.051474,0.031746 -0.0934158,-0.00867 -0.0934158,-0.09147 V 1.3434801 c 0,-0.082804 0.0419414,-0.1745473 0.0934158,-0.2062933 L 2.0944923,0.50468388 c 0.00965,-0.005952 0.01948,-0.009668 0.028219,-0.0107039 z"
         transform="matrix(-0.08847824,0.52363729,-0.52363729,-0.08847824,2.5315982,0.60664917)" />
    </g>
  </g>
</svg>
